<?xml version="1.0" encoding="utf-8"?>
<!-- Generator: Adobe Illustrator 18.1.1, SVG Export Plug-In . SVG Version: 6.00 Build 0)  -->
<svg version="1.1" id="Ebene_1" xmlns="http://www.w3.org/2000/svg" xmlns:xlink="http://www.w3.org/1999/xlink" x="0px" y="0px"
	 viewBox="0 192.6 500 113.7" enable-background="new 0 192.6 500 113.7" xml:space="preserve">
<linearGradient id="SVGID_1_" gradientUnits="userSpaceOnUse" x1="31.6" y1="464.0772" x2="98.3" y2="464.0772" gradientTransform="matrix(1.6057 0 0 -1.6057 0 995.5845)">
	<stop  offset="0" style="stop-color:#192844"/>
	<stop  offset="1" style="stop-color:#192844;stop-opacity:0.7"/>
</linearGradient>
<polygon opacity="0.9" fill="url(#SVGID_1_)" enable-background="new    " points="50.7,201.8 106.6,299.1 157.8,201.8 "/>
<linearGradient id="SVGID_2_" gradientUnits="userSpaceOnUse" x1="0.9" y1="464.0772" x2="70.2" y2="464.0772" gradientTransform="matrix(1.6057 0 0 -1.6057 0 995.5845)">
	<stop  offset="0" style="stop-color:#FF5D19"/>
	<stop  offset="1" style="stop-color:#FF5D19;stop-opacity:0.7"/>
</linearGradient>
<polygon fill="url(#SVGID_2_)" points="57.3,299.1 112.7,201.8 1.4,201.8 "/>
<path fill="#454545" stroke="#454545" stroke-miterlimit="10" d="M253,220.7c0.1-0.3,0.4-0.6,0.7-0.6h9.7c0.2,0,0.1,0.4,0.1,0.7
	l-18.1,58c-0.1,0.3-0.4,0.5-0.7,0.5h-11.2c-0.3,0-0.6-0.2-0.7-0.5l-13.4-46.1c-0.2-0.6-0.9-0.6-1.1,0l-12.3,46.1
	c-0.1,0.3-0.4,0.6-0.7,0.6h-11.3c-0.3,0-0.6-0.2-0.7-0.5l-18-57.9c-0.2-0.7,0-0.7,0.5-0.7h10.4c0.3,0,0.6,0.2,0.7,0.6l12.5,44.6
	c0.2,0.7,1.2,0.7,1.4,0l12.5-44.6c0.1-0.3,0.4-0.6,0.7-0.6h11.3c0.3,0,0.6,0.2,0.7,0.5l13,44.6c0.3,0.8,1.4,0.8,1.5,0L253,220.7z"/>
<path fill="#454545" stroke="#454545" stroke-miterlimit="10" d="M315.2,246.1c0,0.9,0,1.9-0.1,2.9c0,0.8-0.1,1.6-0.1,2.4
	c0,0.4-0.4,0.7-0.8,0.7l-38.3,0c-0.4,0-0.8,0.4-0.8,0.8c0.1,5.9,1.5,10.5,4.2,13.8c2.8,3.4,6.1,5.3,12.6,5.3c3.3,0,5.8-0.1,9.5-0.8
	c0,0,5.4-0.9,8.9-1.7c0.5-0.1,0.8,0.1,0.9,0.5l1.5,6.3c0.1,0.4-0.1,0.7-0.5,0.8c-3.1,1-9.1,2.1-10.5,2.3c-3.6,0.6-7.4,0.9-11.3,0.9
	c-9.5,0-15.5-2.2-19.9-7.1c-4.4-4.9-6.6-12.4-6.6-22.6c0-4.6,0.6-8.8,1.9-12.6c1.2-3.8,3.1-7,5.4-9.6c2.4-2.6,5.3-4.7,8.7-6.2
	c3.4-1.5,7.3-2.2,11.7-2.2c4,0,7.5,0.6,10.4,1.9c2.9,1.3,5.3,3.1,7.3,5.4c1.9,2.3,3.4,5.1,4.3,8.3
	C314.7,238.9,315.2,242.4,315.2,246.1z M303.5,244.5c0.4,0,0.8-0.3,0.8-0.8c0-4.6-1-8.4-3.1-11.2c-2.2-3-5.7-4.5-10.4-4.5
	c-2.6,0-4.8,0.5-6.7,1.5c-1.9,1-3.5,2.3-4.8,3.9c-1.3,1.6-2.3,3.4-3,5.3c-0.6,1.7-0.9,3.3-1,5c0,0.4,0.3,0.8,0.8,0.8L303.5,244.5z"
	/>
<path fill="#454545" stroke="#454545" stroke-miterlimit="10" d="M374.9,248.5c0,4.5-0.6,8.6-1.9,12.5c-1.2,3.9-3.1,7.2-5.6,10
	c-2.5,2.8-5.7,5.1-9.5,6.7c-3.8,1.6-8.3,2.4-13.4,2.4c-4.1,0-8.1-0.3-12-0.9c-3.7-0.6-7.1-1.4-10.2-2.3c-0.3-0.1-0.5-0.4-0.5-0.7
	v-81.4c0-0.4,0.3-0.7,0.7-0.7h9.4c0.4,0,0.7,0.3,0.7,0.7v32c0,0.6,0.7,0.9,1.1,0.5c2.1-1.9,4.5-3.6,7.1-4.9
	c3.1-1.6,6.8-2.3,11.2-2.3c4.2,0,7.7,0.7,10.6,2.3c2.9,1.6,5.3,3.6,7.1,6.2c1.8,2.6,3.1,5.6,4,9.1
	C374.4,241.1,374.9,244.7,374.9,248.5z M363.4,249.3c0-2.6-0.2-5.1-0.7-7.6c-0.5-2.5-1.2-4.7-2.3-6.6c-1.1-1.9-2.5-3.5-4.2-4.6
	c-1.7-1.1-3.9-1.7-6.5-1.7c-3.2,0-6.2,0.8-9,2.5c-2.7,1.6-5.1,3.8-7.9,6.8c-0.4,0.4-0.4,0.8-0.4,1.3v29.1c0,0.4,0.2,0.9,0.8,1.1
	c1.7,0.8,3.2,1.1,5.1,1.5c2.1,0.4,4.5,0.6,7.1,0.6c6,0,10.4-2,13.4-6.1C361.9,261.5,363.4,256.1,363.4,249.3z"/>
<path fill="#454545" stroke="#454545" stroke-miterlimit="10" d="M433.5,278.6c0,4.5,0.3,8.4-0.7,11.7c-1,3.4-2.6,6.2-4.8,8.5
	c-2.2,2.3-5.1,4-8.7,5.1c-3.6,1.1-8,1.7-13.1,1.7c-2.3,0-5-0.1-8-0.4c-2.8-0.3-5.6-0.6-8.4-1.1c-0.3,0-0.4-0.3-0.4-0.5l0.3-7.5
	c0-0.3,0.3-0.5,0.5-0.5c2.3,0.2,4.8,0.4,7.3,0.5c2.7,0.1,5.4,0.2,8.2,0.2c6.2,0,10.7-1.3,13.6-3.9s3.5-6.9,3.5-13v-6.1
	c0-0.5-0.7-0.8-1.1-0.4c-2.2,2.1-4.2,3.6-7,4.9c-3.2,1.5-6.8,2.3-10.8,2.3c-4.2,0-7.7-0.7-10.6-2.2c-2.9-1.5-5.3-3.5-7.1-6.1
	c-1.9-2.6-3.2-5.5-4.1-8.9c-0.9-3.3-1.3-8.4-1.3-12.2c0-4.3,0.6-8.3,1.9-12c1.2-3.7,3.2-6.9,5.7-9.6c2.6-2.7,5.8-4.9,9.6-6.5
	c3.9-1.6,8.4-2.4,13.6-2.4c4.1,0,8,0.3,11.9,0.9c3.7,0.5,6.9,1.3,9.7,2.3c0.2,0.1,0.3,0.3,0.3,0.5L433.5,278.6z M422.7,231.7
	c0-0.4-0.2-0.8-0.7-1c-1.6-0.6-3-0.9-5-1.4c-2.1-0.5-4.4-0.7-6.8-0.7c-3.1,0-5.8,0.5-8,1.6c-2.2,1.1-4.1,2.5-5.6,4.4
	c-1.5,1.9-2.6,4.1-3.3,6.7c-0.7,2.6-1.1,5.4-1.1,8.4c0,2.5,0.2,5,0.6,7.3c0.4,2.4,1.2,6.1,2.2,7.9c1.1,1.9,2.5,3.4,4.3,4.5
	c2,1.3,4.7,1.8,8,1.7c1.4-0.1,2.7-0.3,4-0.7c4.1-1.3,6.8-3.8,10.9-8.3c0.4-0.5,0.5-0.9,0.6-1.3V231.7z"/>
<path fill="#454545" stroke="#454545" stroke-miterlimit="10" d="M498.3,249.4c0,4.3-0.7,8.3-2,12c-1.4,3.7-3.3,7-5.9,9.8
	c-2.6,2.8-5.7,4.9-9.4,6.5c-3.7,1.6-7.8,2.4-12.4,2.4c-4.8,0-8.9-0.7-12.5-2.2c-3.6-1.5-6.5-3.5-8.9-6.1c-2.4-2.6-4.2-5.7-5.3-9.3
	c-1.2-3.6-1.8-7.5-1.8-11.8c0-4.5,0.7-8.6,2-12.3c1.3-3.7,3.2-7,5.7-9.7c2.5-2.7,5.6-4.8,9.3-6.3c3.7-1.5,7.9-2.2,12.7-2.2
	c4.6,0,8.7,0.7,12.2,2.1c3.5,1.4,6.5,3.4,8.9,6c2.4,2.6,4.3,5.7,5.5,9.3C497.7,241.1,498.3,245,498.3,249.4z M486.9,250.8
	c0-3-0.3-5.8-1-8.5c-0.6-2.7-1.7-5-3.1-7c-1.4-2-3.3-3.6-5.5-4.8c-2.2-1.2-4.9-1.7-8.1-1.7c-3,0-5.5,0.5-7.7,1.6
	c-2.2,1-4,2.5-5.5,4.3c-1.5,1.8-2.6,4-3.3,6.6c-0.7,2.5-1.1,5.3-1.1,8.2c0,3.3,0.3,6.3,1,9c0.7,2.7,1.8,5,3.2,6.9s3.4,3.4,5.7,4.4
	c2.3,1.1,5,1.6,8.2,1.6c2.9,0,5.4-0.6,7.5-1.7c2.2-1.2,3.9-2.7,5.3-4.6c1.4-1.9,2.5-4.1,3.2-6.6C486.5,256,486.9,253.4,486.9,250.8z
	"/>
<path fill="#454545" stroke="#454545" stroke-width="0.5062" stroke-miterlimit="10" d="M210.9,341.8"/>
</svg>
